<?xml version="1.0" encoding="UTF-8"?>
<!--Generator: Apple Native CoreSVG 175.5-->
<!-- <!DOCTYPE svg PUBLIC "-//W3C//DTD SVG 1.1//EN"
"http://www.w3.org/Graphics/SVG/1.1/DTD/svg11.dtd"> -->
<svg version="1.1" xmlns="http://www.w3.org/2000/svg" xmlns:xlink="http://www.w3.org/1999/xlink"
  width="25.0488" height="20.3418" viewBox="0 0 25.0488 20.3418">
  <g>
    <rect height="20.3418" opacity="0" width="25.0488" x="0" y="0" />
    <path
      d="M2.5293 9.11133C3.91602 9.11133 5.04883 7.97852 5.04883 6.57227C5.04883 5.19531 3.91602 4.05273 2.5293 4.05273C1.13281 4.05273 0 5.18555 0 6.57227C0 7.97852 1.14258 9.11133 2.5293 9.11133ZM2.5293 7.58789C1.98242 7.58789 1.52344 7.12891 1.52344 6.57227C1.52344 6.01562 1.98242 5.57617 2.5293 5.57617C3.06641 5.57617 3.52539 6.03516 3.52539 6.57227C3.52539 7.12891 3.08594 7.58789 2.5293 7.58789ZM12.5293 5.04883C13.916 5.04883 15.0488 3.91602 15.0488 2.51953C15.0488 1.14258 13.916 0 12.5293 0C11.123 0 10 1.13281 10 2.51953C10 3.91602 11.1328 5.04883 12.5293 5.04883ZM12.5293 3.52539C11.9824 3.52539 11.5234 3.06641 11.5234 2.51953C11.5234 1.96289 11.9824 1.52344 12.5293 1.52344C13.0664 1.52344 13.5254 1.98242 13.5254 2.51953C13.5254 3.06641 13.0859 3.52539 12.5293 3.52539ZM22.5195 9.11133C23.9062 9.11133 25.0488 7.97852 25.0488 6.57227C25.0488 5.18555 23.916 4.05273 22.5195 4.05273C21.1328 4.05273 20 5.19531 20 6.57227C20 7.97852 21.1328 9.11133 22.5195 9.11133ZM22.5195 7.58789C21.9629 7.58789 21.5234 7.12891 21.5234 6.57227C21.5234 6.03516 21.9824 5.57617 22.5195 5.57617C23.0664 5.57617 23.5254 6.01562 23.5254 6.57227C23.5254 7.12891 23.0664 7.58789 22.5195 7.58789ZM3.69141 8.4668L6.78711 10.3711C7.41211 10.752 8.44727 10.7715 9.0918 9.90234L12.7832 4.95117L11.3867 4.35547L8.01758 8.87695C7.8418 9.13086 7.65625 9.17969 7.32422 8.97461L4.47266 7.2168ZM21.3574 8.45703L20.5762 7.20703L17.7441 8.94531C17.3926 9.16992 17.1973 9.10156 17.002 8.83789L13.6621 4.33594L12.2754 4.94141L15.9766 9.91211C16.6016 10.752 17.627 10.752 18.1934 10.4004ZM4.92188 15.625L20.1367 15.625L20.1367 14.1504L4.92188 14.1504ZM2.48047 8.68164L4.47266 16.7969C4.84375 18.3301 5.6543 19.1016 7.26562 19.1016L17.7832 19.1016C19.4043 19.1016 20.2051 18.3301 20.5859 16.7969L22.5781 8.68164L21.2012 8.05664L19.1211 16.6113C18.9551 17.3047 18.5352 17.627 17.8027 17.627L7.25586 17.627C6.52344 17.627 6.10352 17.3047 5.9375 16.6113L3.84766 8.05664Z"
      fill="#ffffff" fill-opacity="0.85" />
  </g>
</svg>