<svg xmlns="http://www.w3.org/2000/svg" xmlns:xlink="http://www.w3.org/1999/xlink" width="286" height="286" viewBox="0 0 286 286"><defs><clipPath id="a"><rect width="286" height="286" rx="73" transform="translate(113 397)" fill="none" stroke="red" stroke-width="10"/></clipPath></defs><g transform="translate(-113 -397)" clip-path="url(#a)"><g transform="translate(-293 71)"><path d="M75,20A55.062,55.062,0,0,0,20,75V201a55.062,55.062,0,0,0,55,55H201a55.062,55.062,0,0,0,55-55V75a55.062,55.062,0,0,0-55-55H75M75,0H201a75,75,0,0,1,75,75V201a75,75,0,0,1-75,75H75A75,75,0,0,1,0,201V75A75,75,0,0,1,75,0Z" transform="translate(411 331)" fill="#fff"/><path d="M74,30A44.05,44.05,0,0,0,30,74V228a44.05,44.05,0,0,0,44,44H228a44.05,44.05,0,0,0,44-44V74a44.05,44.05,0,0,0-44-44H74M74,0H228a74,74,0,0,1,74,74V228a74,74,0,0,1-74,74H74A74,74,0,0,1,0,228V74A74,74,0,0,1,74,0Z" transform="translate(398 318)" fill="#fff"/><path d="M74,30A44.05,44.05,0,0,0,30,74V228a44.05,44.05,0,0,0,44,44H228a44.05,44.05,0,0,0,44-44V74a44.05,44.05,0,0,0-44-44H74M74,0H228a74,74,0,0,1,74,74V228a74,74,0,0,1-74,74H74A74,74,0,0,1,0,228V74A74,74,0,0,1,74,0Z" transform="translate(398 318)" fill="#fff"/></g></g></svg>