<svg xmlns="http://www.w3.org/2000/svg" width="768" height="256" fill="none" viewBox="0 0 768 256">
  <path fill="#0014FF" d="M43.502 14.322a29.213 29.213 0 0 0-29.18 29.18v168.996a29.182 29.182 0 0 0 29.18 29.18 29.181 29.181 0 0 0 29.18-29.18V43.502a29.213 29.213 0 0 0-29.18-29.18Zm0-14.322a43.502 43.502 0 0 1 43.502 43.502v168.996A43.505 43.505 0 0 1 43.502 256 43.502 43.502 0 0 1 0 212.498V43.502A43.502 43.502 0 0 1 43.502 0Z"/>
  <path fill="url(#b)" d="M155.838 128a56.835 56.835 0 0 0-55.745 67.927 56.834 56.834 0 0 0 15.555 29.102 56.82 56.82 0 0 0 40.279 16.952 56.835 56.835 0 0 0 52.603-78.887 56.851 56.851 0 0 0-12.502-18.445A56.468 56.468 0 0 0 155.838 128Zm0-14.322a71.166 71.166 0 0 1 65.744 43.929 71.159 71.159 0 0 1-15.426 77.551 71.164 71.164 0 0 1-77.55 15.425 71.163 71.163 0 0 1-43.93-65.744 71.161 71.161 0 0 1 71.162-71.161Z"/>
  <path fill="#262626" d="M340.784 251.538h20.208a164.533 164.533 0 0 1-1.948-27.512v-76.205a182.777 182.777 0 0 1 1.705-27.512h-21.683a189.46 189.46 0 0 1 1.704 27.512v46.989a56.856 56.856 0 0 1-11.2 24.347c-9.724 13.147-21.167 19.234-35.045 19.234-18.976 0-29.459-12.173-29.459-33.842v-56.728c-.109-9.2.46-18.396 1.704-27.512h-21.912a175.146 175.146 0 0 1 1.704 27.268v60.151a53.234 53.234 0 0 0 6.803 28.243c7.805 11.658 21.439 18.002 38.969 18.002 21.912 0 37.007-9.008 49.181-28.973a74.694 74.694 0 0 0-.716 10.713l-.015 15.825Zm69.389 0a196.19 196.19 0 0 1-1.704-27.512v-46.989a52.14 52.14 0 0 1 11.199-24.103c10.226-13.148 21.182-19.234 34.816-19.234 19.234 0 29.718 11.686 29.718 33.598v56.728c.072 9.2-.502 18.393-1.719 27.512h21.912a165.172 165.172 0 0 1-1.704-27.268v-60.151a49.663 49.663 0 0 0-6.803-27.999c-7.791-11.93-21.425-18.26-38.955-18.26-21.912 0-37.737 9.495-49.181 29.46.52-3.465.759-6.966.717-10.47v-16.541h-20.208c1.418 9.1 2.07 18.303 1.947 27.512v76.205a155.375 155.375 0 0 1-1.947 27.512h21.912Zm207.922 0h19.721a155.742 155.742 0 0 1-1.948-26.781v-68.429c0-26.295-16.556-39.929-48.694-39.929-18.26 0-32.868 4.626-42.85 13.878-6.087 5.37-9.252 10.469-13.634 21.668l18.976 4.139a34.218 34.218 0 0 1 7.548-14.121c6.802-7.06 16.799-10.469 30.19-10.469 20.207 0 30.677 8.521 30.677 25.063v14.121c-29.947.716-41.633 2.191-55.998 6.33-22.628 6.359-34.802 20.495-34.802 39.958 0 23.144 16.313 37.007 43.08 37.007a71.868 71.868 0 0 0 25.321-4.869c8.277-3.165 12.889-6.33 22.399-14.852l.014 17.286Zm0-50.641a26.543 26.543 0 0 1-7.548 20.953 55.036 55.036 0 0 1-38.955 17.286c-15.825 0-25.807-8.522-25.807-21.912 0-11.687 6.087-19.965 18.503-25.063 10.957-4.626 24.834-6.33 53.807-7.061v15.797Zm38.955 15.095a48.085 48.085 0 0 0 7.791 19.234c8.994 12.403 26.051 18.991 48.207 18.991 33.355 0 54.064-15.095 54.064-39.442a32.138 32.138 0 0 0-11.686-25.321c-7.305-5.6-15.096-8.521-38.712-13.878-15.095-3.165-21.425-5.113-27.025-8.278a14.957 14.957 0 0 1-8.278-13.39c0-12.89 12.66-21.913 30.434-21.913 10.956 0 19.721 3.165 25.32 9.252a22.15 22.15 0 0 1 6.087 12.89l19.234-3.165c-3.165-11.2-6.574-16.8-12.889-22.156-8.808-7.777-21.698-11.672-38.254-11.672-16.312 0-29.459 4.382-37.981 12.66a32.59 32.59 0 0 0-10.469 23.631 29.93 29.93 0 0 0 13.147 25.564c8.278 5.6 16.556 8.522 36.034 12.66 18.016 3.653 22.886 5.113 28.729 8.765a16.44 16.44 0 0 1 7.548 15.095c0 14.365-13.391 23.373-34.573 23.373-12.417 0-22.156-2.921-28.242-8.521-4.87-4.382-6.803-8.765-8.522-17.773l-19.964 3.394Z"/>
  <defs>
    <linearGradient id="b" x1="130.5" x2="216" y1="159.5" y2="245" gradientUnits="userSpaceOnUse">
      <stop stop-color="#0014FF"/>
      <stop offset="1" stop-color="#2AF598"/>
    </linearGradient>
  </defs>
</svg>
