<svg width="896" height="256" viewBox="0 0 896 256" fill="none" xmlns="http://www.w3.org/2000/svg">
<g clip-path="url(#clip0_59_10)">
<path d="M107.502 14.3217C99.7656 14.3302 92.3484 17.4073 86.8778 22.8778C81.4073 28.3484 78.3302 35.7656 78.3217 43.5021V212.498C78.3217 220.237 81.396 227.659 86.8684 233.132C92.3408 238.604 99.763 241.678 107.502 241.678C115.241 241.678 122.663 238.604 128.136 233.132C133.608 227.659 136.683 220.237 136.683 212.498V43.5021C136.674 35.7656 133.597 28.3484 128.126 22.8778C122.656 17.4073 115.239 14.3302 107.502 14.3217ZM107.502 0C119.04 0 130.104 4.58324 138.263 12.7415C146.421 20.8997 151.004 31.9646 151.004 43.5021V212.498C151.004 224.035 146.421 235.1 138.263 243.259C130.104 251.417 119.04 256 107.502 256C95.9646 256 84.8997 251.417 76.7415 243.259C68.5832 235.1 64 224.035 64 212.498V43.5021C64 31.9646 68.5832 20.8997 76.7415 12.7415C84.8997 4.58324 95.9646 0 107.502 0Z" fill="#0014FF"/>
<path d="M219.838 128C208.596 128 197.608 131.334 188.261 137.58C178.914 143.825 171.629 152.702 167.327 163.088C163.026 173.474 161.9 184.902 164.093 195.927C166.286 206.953 171.699 217.08 179.648 225.029C184.911 230.373 191.18 234.622 198.093 237.531C205.006 240.441 212.426 241.953 219.927 241.981C227.427 242.01 234.859 240.553 241.793 237.696C248.728 234.839 255.029 230.638 260.333 225.334C265.636 220.031 269.838 213.73 272.695 206.795C275.552 199.86 277.008 192.428 276.98 184.928C276.952 177.428 275.439 170.007 272.53 163.094C269.62 156.181 265.371 149.912 260.028 144.649C254.762 139.354 248.499 135.157 241.6 132.299C234.702 129.441 227.305 127.98 219.838 128ZM219.838 113.678C233.912 113.678 247.67 117.852 259.373 125.671C271.075 133.49 280.196 144.604 285.582 157.607C290.968 170.61 292.377 184.918 289.631 198.722C286.885 212.526 280.108 225.205 270.156 235.158C260.204 245.11 247.524 251.887 233.721 254.633C219.917 257.378 205.609 255.969 192.606 250.583C179.603 245.197 168.489 236.076 160.67 224.374C152.85 212.672 148.677 198.913 148.677 184.839C148.677 165.966 156.174 147.866 169.519 134.521C182.865 121.176 200.965 113.678 219.838 113.678Z" fill="url(#paint0_linear_59_10)"/>
<path d="M404.784 251.538H424.992C423.574 242.438 422.922 233.235 423.044 224.026V147.821C422.919 138.62 423.489 129.424 424.749 120.309H403.066C404.301 129.426 404.871 138.621 404.77 147.821V194.81C403.03 203.702 399.19 212.05 393.57 219.157C383.846 232.304 372.403 238.391 358.525 238.391C339.549 238.391 329.066 226.218 329.066 204.549V147.821C328.957 138.621 329.526 129.425 330.77 120.309H308.858C310.135 129.34 310.705 138.457 310.562 147.577V207.728C310.167 217.591 312.523 227.369 317.365 235.971C325.17 247.629 338.804 253.973 356.334 253.973C378.246 253.973 393.341 244.965 405.515 225C405.02 228.549 404.78 232.13 404.799 235.713L404.784 251.538ZM474.173 251.538C472.961 242.419 472.391 233.226 472.469 224.026V177.037C474.057 168.17 477.916 159.866 483.668 152.934C493.894 139.786 504.85 133.7 518.484 133.7C537.718 133.7 548.202 145.386 548.202 167.298V224.026C548.274 233.226 547.7 242.419 546.483 251.538H568.395C567.075 242.512 566.505 233.391 566.691 224.27V164.119C567.24 154.319 564.873 144.576 559.888 136.12C552.097 124.19 538.463 117.86 520.933 117.86C499.021 117.86 483.196 127.355 471.752 147.32C472.272 143.855 472.511 140.354 472.469 136.85V120.309H452.261C453.679 129.409 454.331 138.612 454.208 147.821V224.026C454.376 233.237 453.724 242.444 452.261 251.538H474.173ZM682.095 251.538H701.816C700.397 242.684 699.745 233.723 699.868 224.757V156.328C699.868 130.033 683.312 116.399 651.174 116.399C632.914 116.399 618.306 121.025 608.324 130.277C602.237 135.647 599.072 140.746 594.69 151.945L613.666 156.084C615.03 150.847 617.616 146.007 621.213 141.963C628.016 134.903 638.013 131.494 651.404 131.494C671.611 131.494 682.081 140.015 682.081 156.557V170.678C652.134 171.394 640.448 172.869 626.083 177.008C603.455 183.367 591.281 197.503 591.281 216.966C591.281 240.11 607.594 253.973 634.361 253.973C643.026 253.89 651.604 252.24 659.682 249.104C667.959 245.939 672.571 242.774 682.081 234.252L682.095 251.538ZM682.095 200.897C682.43 204.728 681.929 208.585 680.625 212.203C679.322 215.821 677.248 219.112 674.547 221.85C669.529 227.176 663.5 231.448 656.811 234.416C650.122 237.384 642.909 238.989 635.592 239.136C619.767 239.136 609.785 230.614 609.785 217.224C609.785 205.537 615.872 197.259 628.288 192.161C639.245 187.535 653.122 185.831 682.095 185.1V200.897ZM721.05 215.992C722.216 222.894 724.875 229.458 728.841 235.226C737.835 247.629 754.892 254.217 777.048 254.217C810.403 254.217 831.112 239.122 831.112 214.775C831.191 209.947 830.181 205.164 828.158 200.781C826.135 196.397 823.15 192.526 819.426 189.454C812.121 183.854 804.33 180.933 780.714 175.576C765.619 172.411 759.289 170.463 753.689 167.298C751.201 166.056 749.109 164.145 747.647 161.78C746.184 159.414 745.41 156.688 745.411 153.908C745.411 141.018 758.071 131.995 775.845 131.995C786.801 131.995 795.566 135.16 801.165 141.247C804.559 144.756 806.699 149.287 807.252 154.137L826.486 150.972C823.321 139.772 819.912 134.172 813.597 128.816C804.789 121.039 791.899 117.144 775.343 117.144C759.031 117.144 745.884 121.526 737.362 129.804C734.098 132.821 731.485 136.473 729.684 140.537C727.884 144.601 726.934 148.99 726.893 153.435C726.763 158.457 727.899 163.431 730.197 167.899C732.494 172.366 735.88 176.184 740.04 178.999C748.318 184.599 756.596 187.521 776.074 191.659C794.09 195.312 798.96 196.772 804.803 200.424C807.308 202.023 809.333 204.271 810.662 206.929C811.991 209.587 812.575 212.556 812.351 215.519C812.351 229.884 798.96 238.892 777.778 238.892C765.361 238.892 755.622 235.971 749.536 230.371C744.666 225.989 742.733 221.606 741.014 212.598L721.05 215.992Z" fill="#262626"/>
</g>
<g clip-path="url(#clip1_59_10)">
<path d="M846.562 140.864V93.248C846.562 83.456 851.362 76.16 861.73 76.16C868.834 76.16 875.618 80.192 875.618 88.768C875.618 93.824 873.186 97.728 868.962 100.352V100.672C875.426 101.696 879.714 106.816 879.714 113.984C879.714 123.712 872.866 128.896 865.826 128.896C861.602 128.896 857.122 127.68 853.538 123.712C853.73 129.6 853.922 135.04 854.05 140.864H846.562ZM863.906 122.752C868.578 122.752 872.418 119.488 872.418 113.536C872.418 108.544 869.474 104.64 863.586 104.64C862.434 104.64 861.282 104.768 860.194 105.088L859.234 99.52C865.954 98.304 868.514 93.824 868.514 89.408C868.514 84.48 865.314 82.048 861.794 82.048C856.738 82.048 853.858 86.4 853.73 94.016C853.602 101.888 853.538 109.696 853.538 117.696C856.738 121.728 860.514 122.752 863.906 122.752Z" fill="url(#paint1_linear_59_10)"/>
</g>
<defs>
<linearGradient id="paint0_linear_59_10" x1="194.5" y1="159.5" x2="280" y2="245" gradientUnits="userSpaceOnUse">
<stop stop-color="#0014FF"/>
<stop offset="1" stop-color="#2AF598"/>
</linearGradient>
<linearGradient id="paint1_linear_59_10" x1="862" y1="72.6" x2="862" y2="145.671" gradientUnits="userSpaceOnUse">
<stop stop-color="#0031FF"/>
<stop offset="0.527327" stop-color="#0077FF"/>
<stop offset="1" stop-color="#2AF598"/>
</linearGradient>
<clipPath id="clip0_59_10">
<rect width="767.098" height="256" fill="white" transform="translate(64)"/>
</clipPath>
<clipPath id="clip1_59_10">
<rect width="34" height="65" fill="white" transform="translate(846 76)"/>
</clipPath>
</defs>
</svg>
