<?xml version="1.0" encoding="UTF-8"?><svg width="100%" height="100%" viewBox="0 0 800 800" xmlns="http://www.w3.org/2000/svg" fill="#000000" style="margin-right: 0.375rem; margin-left: 0.375rem;"><g><g transform="matrix(-1,0,0,1,800.003,0)"><path d="M719.295,148.377L559.647,148.377C542.41,148.377 528.431,162.352 528.431,179.592L528.431,295.673L399.998,295.673C382.761,295.673 368.783,309.648 368.783,326.889L368.783,442.973L240.353,442.973C223.116,442.973 209.138,456.948 209.138,474.188L209.138,590.272L80.708,590.272C63.47,590.272 49.492,604.248 49.492,621.488L49.492,768.788C49.492,786.028 63.47,800.003 80.708,800.003L719.295,800.003C736.533,800.003 750.511,786.028 750.511,768.788L750.511,179.592C750.511,162.352 736.533,148.377 719.295,148.377ZM688.086,737.569L111.923,737.569L111.923,652.7L240.356,652.7C257.593,652.7 271.572,638.725 271.572,621.485L271.572,505.401L400.005,505.401C417.242,505.401 431.22,491.425 431.22,474.185L431.22,358.104L559.653,358.104C576.89,358.104 590.869,344.129 590.869,326.889L590.869,210.808L688.086,210.808L688.086,737.569Z"/></g><g transform="matrix(-1,0,0,1,800.003,0)"><path d="M86.813,370.038L228.142,370.038C245.379,370.038 259.357,356.063 259.357,338.822C259.357,321.582 245.379,307.607 228.142,307.607L162.177,307.607L416.493,53.291C428.682,41.101 428.682,21.336 416.493,9.143C404.3,-3.047 384.541,-3.047 372.345,9.143L118.029,263.462L118.029,197.494C118.029,180.254 104.051,166.279 86.813,166.279C69.576,166.279 55.598,180.254 55.598,197.494L55.598,338.822C55.598,356.063 69.573,370.038 86.813,370.038Z"/></g></g></svg>