<?xml version="1.0" standalone="no"?>
<!DOCTYPE svg PUBLIC "-//W3C//DTD SVG 20010904//EN"
 "http://www.w3.org/TR/2001/REC-SVG-20010904/DTD/svg10.dtd">
<svg version="1.0" xmlns="http://www.w3.org/2000/svg"
 width="1024.000000pt" height="1024.000000pt" viewBox="0 0 1024.000000 1024.000000"
 preserveAspectRatio="xMidYMid meet">
<metadata>
Created by potrace 1.14, written by Peter Selinger 2001-2017
</metadata>
<g transform="translate(0.000000,1024.000000) scale(0.100000,-0.100000)"
fill="#000000" stroke="none">
<path d="M2179 10235 c-3 -2 -31 -6 -64 -9 -33 -3 -71 -8 -85 -11 -14 -3 -39
-8 -56 -10 -24 -3 -150 -37 -219 -60 -5 -1 -20 -6 -32 -10 -12 -4 -66 -27
-120 -51 -311 -140 -576 -373 -760 -666 -50 -79 -143 -269 -143 -292 0 -9 -5
-16 -10 -16 -6 0 -9 -3 -8 -7 1 -5 -9 -42 -22 -83 -13 -41 -24 -77 -25 -80 -5
-28 -28 -141 -32 -160 -3 -14 -8 -38 -11 -55 -10 -56 -11 -7097 -1 -7179 10
-86 10 -87 33 -192 14 -65 55 -202 75 -249 56 -132 152 -310 191 -355 11 -12
20 -26 20 -29 0 -3 13 -20 28 -37 15 -17 38 -46 52 -64 31 -41 165 -175 215
-215 21 -16 43 -35 49 -40 16 -15 118 -86 161 -112 117 -71 381 -181 480 -198
22 -4 46 -12 53 -18 7 -5 15 -7 18 -5 3 3 22 2 42 -3 130 -30 476 -32 602 -5
14 3 52 11 85 17 33 6 64 14 70 17 5 4 15 7 20 8 8 1 75 20 105 29 7 2 50 20
130 52 36 15 72 32 80 37 8 6 33 20 55 31 36 18 173 103 185 115 3 3 25 21 50
40 70 54 78 61 149 130 114 111 224 255 298 390 16 30 35 64 41 75 17 32 50
110 77 180 24 66 87 305 84 321 -1 5 0 11 1 14 11 30 25 265 18 319 0 3 1 11
2 16 1 6 1 28 1 50 -1 22 -1 49 -1 60 1 11 1 26 1 33 -1 14 -1 41 0 62 0 8 0
20 -1 25 -1 6 -2 21 -1 35 2 20 45 -95 75 -195 5 -18 18 -48 53 -130 19 -44
36 -84 37 -90 8 -26 48 -105 56 -110 6 -3 10 -15 10 -26 0 -10 5 -19 10 -19 6
0 10 -5 10 -10 0 -9 21 -46 103 -185 7 -11 14 -22 17 -25 3 -3 23 -32 45 -65
22 -33 45 -67 52 -75 109 -138 167 -204 263 -301 115 -115 251 -239 265 -239
3 0 13 -7 21 -15 9 -8 46 -36 82 -62 37 -26 69 -51 70 -55 2 -5 8 -8 14 -8 6
0 25 -10 42 -23 17 -13 38 -26 46 -30 8 -4 33 -18 55 -31 71 -44 297 -152 405
-195 95 -37 317 -106 380 -117 14 -3 52 -11 85 -18 33 -8 87 -17 120 -22 64
-9 77 -11 85 -13 22 -8 189 -15 355 -15 176 -1 280 5 365 18 14 2 48 8 75 12
28 4 52 8 55 9 9 2 95 15 102 16 4 0 37 9 74 19 36 11 69 19 73 18 3 -1 20 4
36 11 17 7 39 15 49 17 69 14 335 118 432 170 35 19 64 31 64 27 0 -4 7 2 15
13 8 10 15 15 15 9 0 -7 3 -7 8 0 4 6 27 21 52 34 119 63 348 226 464 331 53
47 225 219 256 256 14 16 39 45 55 65 17 19 41 50 55 69 14 18 36 48 50 65 28
37 34 45 92 135 50 77 74 116 90 150 7 14 15 27 18 30 6 6 104 203 105 211 0
3 10 28 22 55 31 70 70 174 79 209 4 17 11 36 17 43 5 6 7 12 4 12 -4 0 0 18
8 40 8 22 12 40 8 40 -3 0 -1 6 4 13 10 11 27 76 37 137 2 14 7 36 10 50 10
42 19 98 32 190 13 99 19 213 18 380 0 150 -8 335 -14 335 -4 0 -22 131 -22
158 1 9 -4 17 -9 17 -6 0 -7 4 -4 10 3 5 1 29 -6 52 -6 24 -13 52 -15 63 -10
53 -17 81 -22 90 -7 11 -7 13 -17 59 -3 16 -20 67 -36 115 -17 47 -32 91 -33
96 -1 6 -9 26 -18 45 -8 19 -27 63 -42 98 -15 35 -50 107 -78 160 -28 53 -56
107 -62 119 -6 13 -14 23 -18 23 -5 0 -8 5 -8 10 0 14 -143 229 -185 277 -5 7
-14 18 -20 25 -24 32 -122 146 -150 174 -16 17 -37 40 -46 50 -32 39 -205 192
-289 257 -30 23 -57 44 -60 47 -11 11 -159 110 -165 110 -8 0 -69 43 -73 53
-2 4 -12 7 -23 7 -10 0 -19 4 -19 9 0 5 -6 11 -12 13 -7 2 -60 28 -118 57 -58
30 -109 56 -115 57 -22 5 -80 29 -85 35 -17 20 -367 127 -500 153 -14 3 -34 7
-45 9 -50 11 -184 29 -227 31 -16 0 -28 3 -28 6 0 6 -67 8 -270 8 -150 0 -285
-4 -285 -8 0 -1 -13 -4 -30 -5 -135 -15 -186 -23 -290 -46 -49 -11 -97 -22
-105 -24 -8 -1 -35 -9 -60 -16 -55 -15 -52 -14 -70 -22 -44 -17 -156 -51 -162
-49 -5 1 -8 -3 -8 -8 0 -5 -3 -9 -7 -9 -5 1 -11 0 -15 -1 -5 -1 -11 -3 -15 -5
-49 -13 -237 -103 -363 -173 -194 -107 -428 -284 -599 -453 -53 -51 -176 -187
-191 -209 -8 -13 -22 -30 -31 -39 -28 -30 -129 -169 -129 -179 0 -6 -3 -12 -7
-14 -19 -8 -144 -221 -205 -348 -78 -165 -183 -451 -170 -465 3 -3 -1 -5 -10
-5 -12 0 -17 25 -8 50 1 3 1 23 1 45 -2 98 -2 141 -1 150 4 26 1 105 -4 114
-4 5 -3 12 2 14 4 3 5 37 2 77 -3 39 -3 73 -1 76 3 2 4 23 3 47 -3 64 -1 161
3 166 2 2 0 11 -5 20 -5 10 -5 23 0 31 4 7 4 24 0 36 -6 14 -5 26 0 29 5 3 5
18 0 34 -4 16 -6 32 -2 35 3 4 5 23 4 44 -3 64 -4 107 -2 115 5 19 3 76 -3 91
-4 10 -4 23 0 29 8 13 7 102 -1 116 -4 5 -3 12 2 14 4 3 5 37 2 77 -3 39 -3
73 -1 76 3 2 4 23 3 47 -3 64 -1 161 3 166 2 2 0 11 -5 20 -5 10 -5 23 0 31 4
7 4 24 0 36 -6 14 -5 26 0 29 5 3 5 18 0 34 -4 16 -6 32 -2 35 3 4 5 23 4 44
-3 64 -4 107 -2 115 5 19 3 76 -3 91 -4 10 -4 23 0 29 8 13 7 102 -1 116 -4 5
-3 12 2 14 4 3 5 37 2 77 -3 39 -3 73 -1 76 3 2 4 23 3 47 -3 64 -1 161 3 166
2 2 0 11 -5 20 -5 10 -5 23 0 31 4 7 4 24 0 36 -5 13 -6 25 -2 28 4 2 5 36 2
76 -3 39 -3 73 -1 76 3 2 4 23 3 47 -2 55 -3 259 -1 272 0 6 1 28 0 50 -1 92
-2 261 0 270 0 6 1 28 0 50 -1 92 -2 261 0 270 0 6 0 28 0 50 -2 98 -2 141 -1
150 4 26 1 105 -4 114 -4 5 -3 12 2 14 4 3 5 37 2 77 -3 39 -3 73 -1 76 3 2 4
23 3 47 -3 64 -1 161 3 166 2 2 0 11 -5 20 -5 10 -5 23 0 31 4 7 4 24 0 36 -6
14 -5 26 0 29 5 3 5 18 0 35 -5 18 -5 32 1 35 5 4 5 14 -1 25 -6 12 -7 21 0
25 5 3 7 11 5 18 -2 7 -6 74 -10 151 -3 76 -7 142 -10 146 -3 4 -7 25 -10 46
-38 267 -186 593 -372 823 -45 55 -216 221 -245 239 -16 9 -28 19 -28 23 0 6
-97 70 -235 157 -18 11 -63 33 -75 37 -3 1 -31 13 -62 27 -57 26 -225 86 -263
94 -11 2 -29 6 -40 9 -60 13 -59 13 -173 31 -37 7 -358 14 -363 9z m301 -579
c59 -7 197 -42 246 -62 230 -95 376 -204 524 -390 78 -97 185 -317 194 -400 2
-11 6 -25 9 -31 3 -5 8 -23 11 -39 3 -16 8 -47 12 -69 10 -52 11 -6990 1
-7075 -4 -36 -14 -90 -23 -120 -8 -30 -17 -62 -19 -71 -6 -27 -56 -151 -80
-199 -153 -303 -482 -547 -815 -605 -14 -2 -41 -7 -60 -11 -47 -9 -240 -9
-315 0 -82 10 -89 11 -100 17 -5 4 -28 10 -50 14 -47 8 -190 66 -255 102 -326
185 -522 464 -596 853 -10 54 -12 7070 -2 7070 5 0 7 4 4 8 -3 5 2 40 9 78 86
411 368 735 758 873 85 30 115 38 167 46 43 7 95 17 97 19 4 4 240 -3 283 -8z
m4335 -4536 c13 5 25 7 27 5 2 -3 52 -7 109 -10 58 -3 116 -7 128 -10 13 -2
49 -7 80 -11 31 -3 59 -8 62 -10 3 -2 21 -6 40 -9 72 -12 208 -49 304 -82 182
-63 487 -225 607 -322 208 -167 353 -313 488 -493 27 -37 50 -70 50 -74 0 -3
12 -23 28 -43 36 -48 45 -64 124 -221 37 -74 68 -142 68 -150 0 -9 4 -20 9
-25 27 -30 122 -373 136 -495 16 -135 19 -182 19 -320 0 -85 -2 -186 -6 -225
-4 -38 -10 -95 -13 -125 -3 -30 -8 -62 -11 -70 -3 -8 -8 -28 -11 -45 -2 -16
-13 -64 -24 -105 -11 -41 -21 -82 -23 -91 -8 -33 -69 -205 -82 -229 -17 -34
-75 -164 -76 -170 0 -3 -9 -17 -19 -32 -10 -14 -19 -29 -19 -33 0 -24 -201
-307 -276 -390 -20 -22 -41 -46 -47 -55 -45 -59 -262 -242 -387 -327 -166
-112 -435 -249 -459 -234 -2 2 -7 -2 -10 -7 -3 -5 -46 -22 -96 -36 -49 -15
-101 -31 -115 -36 -24 -9 -80 -21 -110 -25 -8 -1 -22 -5 -30 -8 -8 -3 -35 -9
-60 -12 -87 -13 -105 -15 -140 -20 -19 -3 -99 -7 -177 -9 -78 -2 -147 -7 -153
-11 -5 -3 -10 -2 -10 2 0 5 -24 9 -52 10 -29 1 -73 4 -98 6 -124 14 -156 18
-170 24 -8 3 -27 7 -41 9 -29 3 -172 39 -238 60 -165 54 -406 163 -488 222
-17 12 -35 22 -40 22 -6 0 -18 9 -28 20 -10 11 -22 20 -27 20 -12 0 -148 103
-148 112 0 5 -6 8 -14 8 -29 0 -386 369 -386 398 0 6 -4 12 -9 14 -14 5 -151
210 -151 225 0 7 -3 13 -7 13 -5 0 -23 30 -41 68 -18 37 -37 74 -42 82 -35 60
-145 366 -155 434 -9 52 -17 94 -25 126 -6 20 -12 56 -16 80 -3 25 -8 56 -10
70 -9 49 -11 436 -3 500 17 122 19 136 35 215 3 17 7 39 9 50 9 45 11 51 19
63 4 7 5 16 2 19 -3 3 -1 12 5 20 6 7 9 13 5 13 -8 0 70 220 107 300 17 36 31
70 33 75 7 33 185 325 219 361 5 6 35 43 65 83 30 39 58 71 63 71 4 0 7 7 7
17 0 9 3 14 6 11 3 -4 22 12 42 35 36 40 79 82 152 147 74 67 234 181 340 244
62 36 113 66 116 66 2 0 41 18 86 40 46 23 85 41 88 42 3 0 15 4 28 9 13 5 26
9 29 9 3 0 19 6 36 14 136 61 444 123 645 130 39 2 75 6 79 10 4 3 11 2 16 -3
6 -6 19 -6 32 -1z"/>
</g>
</svg>
