<?xml version="1.0" standalone="no"?>
<!DOCTYPE svg PUBLIC "-//W3C//DTD SVG 20010904//EN"
 "http://www.w3.org/TR/2001/REC-SVG-20010904/DTD/svg10.dtd">
<svg version="1.0" xmlns="http://www.w3.org/2000/svg"
 width="700.000000pt" height="700.000000pt" viewBox="0 0 700.000000 700.000000"
 preserveAspectRatio="xMidYMid meet">
<metadata>
Created by potrace 1.14, written by Peter Selinger 2001-2017
</metadata>
<g transform="translate(0.000000,700.000000) scale(0.100000,-0.100000)"
fill="#000000" stroke="none">
<path d="M1495 6985 c-274 -23 -450 -64 -612 -140 -342 -161 -665 -512 -776
-845 -52 -156 -72 -266 -92 -515 -22 -265 -22 -3717 0 -3970 22 -261 40 -360
90 -510 129 -382 516 -771 896 -898 154 -52 266 -72 514 -92 149 -12 492 -15
1979 -15 1153 0 1850 4 1940 10 419 31 618 88 855 244 182 119 332 269 453
451 161 242 216 433 247 861 15 193 15 3673 0 3873 -18 253 -44 406 -94 556
-129 382 -517 771 -895 898 -156 52 -266 72 -515 92 -244 20 -3752 20 -3990 0z
m949 -889 c166 -46 262 -102 392 -231 90 -89 106 -111 153 -205 28 -58 61
-141 73 -185 l23 -80 5 -1490 c4 -1207 7 -1475 17 -1410 38 257 171 526 356
721 288 305 669 460 1082 440 209 -9 356 -47 550 -141 409 -197 697 -591 765
-1045 14 -96 14 -316 0 -406 -97 -611 -566 -1077 -1175 -1169 -426 -64 -856
74 -1169 376 -224 215 -361 476 -410 779 -12 72 -13 64 -18 -185 -5 -189 -11
-277 -22 -324 -82 -323 -304 -550 -627 -638 -89 -25 -319 -25 -408 0 -157 43
-259 99 -373 206 -163 152 -247 324 -268 549 -14 146 -14 3538 0 3684 21 219
104 393 256 539 131 124 264 194 439 228 72 14 288 6 359 -13z"/>
</g>
</svg>
