<?xml version="1.0" standalone="no"?>
<!DOCTYPE svg PUBLIC "-//W3C//DTD SVG 20010904//EN"
 "http://www.w3.org/TR/2001/REC-SVG-20010904/DTD/svg10.dtd">
<svg version="1.0" xmlns="http://www.w3.org/2000/svg"
 width="716.000000pt" height="716.000000pt" viewBox="0 0 716.000000 716.000000"
 preserveAspectRatio="xMidYMid meet">
<metadata>
Created by potrace 1.14, written by Peter Selinger 2001-2017
</metadata>
<g transform="translate(0.000000,716.000000) scale(0.100000,-0.100000)"
fill="#000000" stroke="none">
<path d="M1558 7155 c-2 -2 -25 -6 -53 -9 -27 -4 -58 -9 -67 -12 -9 -3 -25 -7
-35 -9 -39 -8 -141 -44 -195 -69 -31 -14 -62 -26 -67 -26 -6 0 -11 -3 -11 -7
0 -5 -17 -16 -38 -26 -20 -10 -48 -27 -62 -37 -14 -11 -43 -34 -65 -51 -52
-40 -147 -131 -176 -170 -13 -17 -33 -43 -45 -57 -74 -96 -165 -290 -190 -403
-3 -13 -7 -35 -10 -49 -3 -14 -8 -36 -12 -50 -10 -42 -12 -5110 -2 -5165 5
-27 12 -61 15 -75 9 -45 19 -95 20 -102 0 -3 3 -10 8 -14 4 -4 7 -14 7 -22 0
-38 142 -312 162 -312 4 0 8 -5 8 -10 0 -42 253 -270 355 -320 17 -8 32 -17
35 -20 14 -14 171 -79 209 -86 13 -3 31 -9 40 -13 9 -5 19 -9 24 -9 8 0 77
-11 122 -19 17 -3 77 -6 135 -7 310 -6 605 112 825 329 80 79 135 140 135 150
0 3 15 26 34 52 56 79 119 223 152 348 4 17 8 32 9 35 3 13 18 108 20 130 2
14 4 155 4 314 1 159 3 287 6 285 2 -3 7 -27 10 -54 15 -112 81 -330 139 -459
65 -145 180 -337 241 -402 11 -12 30 -35 43 -52 48 -64 223 -231 297 -284 5
-4 24 -18 40 -31 122 -93 329 -201 505 -262 124 -44 258 -73 434 -94 71 -8
340 -7 387 2 15 3 53 9 85 13 33 4 61 8 64 9 3 1 19 4 35 8 17 4 40 10 53 12
12 3 30 7 41 9 58 13 245 82 325 120 148 70 308 173 434 280 40 34 192 185
192 191 0 3 8 13 18 23 35 37 63 74 115 150 91 133 136 217 207 387 20 48 59
172 71 223 6 26 13 56 16 67 2 11 6 29 8 40 2 11 6 34 9 50 16 83 20 156 20
320 -1 99 -4 203 -8 230 -17 116 -32 190 -57 272 -6 18 -12 40 -14 50 -16 79
-171 421 -205 453 -3 3 -20 28 -38 55 -17 28 -36 55 -42 62 -5 6 -31 38 -56
70 -70 87 -180 197 -259 261 -38 31 -78 64 -87 73 -10 10 -26 20 -38 24 -11 3
-20 11 -20 16 0 5 -4 9 -9 9 -5 0 -36 17 -68 38 -77 50 -141 83 -243 127 -103
44 -260 96 -330 109 -14 3 -50 9 -80 15 -30 6 -75 14 -100 18 -54 9 -417 9
-480 0 -127 -18 -150 -23 -245 -47 -87 -23 -224 -68 -240 -79 -5 -4 -41 -20
-80 -36 -38 -16 -72 -31 -75 -34 -3 -3 -30 -19 -60 -35 -214 -115 -449 -325
-609 -546 -22 -30 -45 -60 -51 -67 -5 -7 -10 -15 -10 -19 0 -3 -13 -25 -28
-48 -66 -97 -183 -368 -206 -477 -3 -13 -10 -42 -16 -64 -6 -22 -13 -58 -16
-80 -3 -22 -9 -56 -14 -75 -4 -19 -8 852 -9 1935 -1 1084 -3 1981 -6 1995 -3
14 -7 43 -9 65 -3 22 -9 52 -15 68 -6 15 -8 27 -6 27 3 0 -1 15 -8 33 -8 17
-15 37 -15 42 -11 67 -143 322 -173 333 -5 2 -9 8 -9 13 0 5 -8 17 -17 27 -10
10 -36 39 -59 63 -57 62 -111 109 -169 149 -27 18 -52 36 -55 40 -17 21 -250
125 -315 140 -5 1 -14 4 -20 6 -39 14 -206 32 -301 31 -62 0 -115 -1 -116 -2z"/>
</g>
</svg>
